<?xml version="1.0" encoding="utf-8" standalone="no"?>
<!DOCTYPE svg PUBLIC "-//W3C//DTD SVG 1.1//EN"
  "http://www.w3.org/Graphics/SVG/1.1/DTD/svg11.dtd">
<svg xmlns:xlink="http://www.w3.org/1999/xlink" width="460.8pt" height="345.6pt" viewBox="0 0 460.8 345.6" xmlns="http://www.w3.org/2000/svg" version="1.1">
 <metadata>
  <rdf:RDF xmlns:dc="http://purl.org/dc/elements/1.1/" xmlns:cc="http://creativecommons.org/ns#" xmlns:rdf="http://www.w3.org/1999/02/22-rdf-syntax-ns#">
   <cc:Work>
    <dc:type rdf:resource="http://purl.org/dc/dcmitype/StillImage"/>
    <dc:date>2023-03-06T22:58:11.726681</dc:date>
    <dc:format>image/svg+xml</dc:format>
    <dc:creator>
     <cc:Agent>
      <dc:title>Matplotlib v3.6.2, https://matplotlib.org/</dc:title>
     </cc:Agent>
    </dc:creator>
   </cc:Work>
  </rdf:RDF>
 </metadata>
 <defs>
  <style type="text/css">*{stroke-linejoin: round; stroke-linecap: butt}</style>
 </defs>
 <g id="figure_1">
  <g id="patch_1">
   <path d="M 0 345.6 
L 460.8 345.6 
L 460.8 0 
L 0 0 
z
" style="fill: #ffffff"/>
  </g>
  <g id="axes_1">
   <g id="patch_2">
    <path d="M 57.6 307.584 
L 414.72 307.584 
L 414.72 41.472 
L 57.6 41.472 
z
" style="fill: #ffffff"/>
   </g>
   <g id="matplotlib.axis_1">
    <g id="xtick_1">
     <g id="line2d_1">
      <path d="M 73.832727 307.584 
L 73.832727 41.472 
" clip-path="url(#pb288a7a6b8)" style="fill: none; stroke: #b0b0b0; stroke-width: 0.8; stroke-linecap: square"/>
     </g>
     <g id="line2d_2">
      <defs>
       <path id="m197afaec08" d="M 0 0 
L 0 3.5 
" style="stroke: #000000; stroke-width: 0.8"/>
      </defs>
      <g>
       <use xlink:href="#m197afaec08" x="73.832727" y="307.584" style="stroke: #000000; stroke-width: 0.8"/>
      </g>
     </g>
     <g id="text_1">
      <!-- 0 -->
      <g transform="translate(70.651477 322.182437) scale(0.1 -0.1)">
       <defs>
        <path id="DejaVuSans-30" d="M 2034 4250 
Q 1547 4250 1301 3770 
Q 1056 3291 1056 2328 
Q 1056 1369 1301 889 
Q 1547 409 2034 409 
Q 2525 409 2770 889 
Q 3016 1369 3016 2328 
Q 3016 3291 2770 3770 
Q 2525 4250 2034 4250 
z
M 2034 4750 
Q 2819 4750 3233 4129 
Q 3647 3509 3647 2328 
Q 3647 1150 3233 529 
Q 2819 -91 2034 -91 
Q 1250 -91 836 529 
Q 422 1150 422 2328 
Q 422 3509 836 4129 
Q 1250 4750 2034 4750 
z
" transform="scale(0.015625)"/>
       </defs>
       <use xlink:href="#DejaVuSans-30"/>
      </g>
     </g>
    </g>
    <g id="xtick_2">
     <g id="line2d_3">
      <path d="M 114.618474 307.584 
L 114.618474 41.472 
" clip-path="url(#pb288a7a6b8)" style="fill: none; stroke: #b0b0b0; stroke-width: 0.8; stroke-linecap: square"/>
     </g>
     <g id="line2d_4">
      <g>
       <use xlink:href="#m197afaec08" x="114.618474" y="307.584" style="stroke: #000000; stroke-width: 0.8"/>
      </g>
     </g>
     <g id="text_2">
      <!-- 25 -->
      <g transform="translate(108.255974 322.182437) scale(0.1 -0.1)">
       <defs>
        <path id="DejaVuSans-32" d="M 1228 531 
L 3431 531 
L 3431 0 
L 469 0 
L 469 531 
Q 828 903 1448 1529 
Q 2069 2156 2228 2338 
Q 2531 2678 2651 2914 
Q 2772 3150 2772 3378 
Q 2772 3750 2511 3984 
Q 2250 4219 1831 4219 
Q 1534 4219 1204 4116 
Q 875 4013 500 3803 
L 500 4441 
Q 881 4594 1212 4672 
Q 1544 4750 1819 4750 
Q 2544 4750 2975 4387 
Q 3406 4025 3406 3419 
Q 3406 3131 3298 2873 
Q 3191 2616 2906 2266 
Q 2828 2175 2409 1742 
Q 1991 1309 1228 531 
z
" transform="scale(0.015625)"/>
        <path id="DejaVuSans-35" d="M 691 4666 
L 3169 4666 
L 3169 4134 
L 1269 4134 
L 1269 2991 
Q 1406 3038 1543 3061 
Q 1681 3084 1819 3084 
Q 2600 3084 3056 2656 
Q 3513 2228 3513 1497 
Q 3513 744 3044 326 
Q 2575 -91 1722 -91 
Q 1428 -91 1123 -41 
Q 819 9 494 109 
L 494 744 
Q 775 591 1075 516 
Q 1375 441 1709 441 
Q 2250 441 2565 725 
Q 2881 1009 2881 1497 
Q 2881 1984 2565 2268 
Q 2250 2553 1709 2553 
Q 1456 2553 1204 2497 
Q 953 2441 691 2322 
L 691 4666 
z
" transform="scale(0.015625)"/>
       </defs>
       <use xlink:href="#DejaVuSans-32"/>
       <use xlink:href="#DejaVuSans-35" x="63.623047"/>
      </g>
     </g>
    </g>
    <g id="xtick_3">
     <g id="line2d_5">
      <path d="M 155.404221 307.584 
L 155.404221 41.472 
" clip-path="url(#pb288a7a6b8)" style="fill: none; stroke: #b0b0b0; stroke-width: 0.8; stroke-linecap: square"/>
     </g>
     <g id="line2d_6">
      <g>
       <use xlink:href="#m197afaec08" x="155.404221" y="307.584" style="stroke: #000000; stroke-width: 0.8"/>
      </g>
     </g>
     <g id="text_3">
      <!-- 50 -->
      <g transform="translate(149.041721 322.182437) scale(0.1 -0.1)">
       <use xlink:href="#DejaVuSans-35"/>
       <use xlink:href="#DejaVuSans-30" x="63.623047"/>
      </g>
     </g>
    </g>
    <g id="xtick_4">
     <g id="line2d_7">
      <path d="M 196.189968 307.584 
L 196.189968 41.472 
" clip-path="url(#pb288a7a6b8)" style="fill: none; stroke: #b0b0b0; stroke-width: 0.8; stroke-linecap: square"/>
     </g>
     <g id="line2d_8">
      <g>
       <use xlink:href="#m197afaec08" x="196.189968" y="307.584" style="stroke: #000000; stroke-width: 0.8"/>
      </g>
     </g>
     <g id="text_4">
      <!-- 75 -->
      <g transform="translate(189.827468 322.182437) scale(0.1 -0.1)">
       <defs>
        <path id="DejaVuSans-37" d="M 525 4666 
L 3525 4666 
L 3525 4397 
L 1831 0 
L 1172 0 
L 2766 4134 
L 525 4134 
L 525 4666 
z
" transform="scale(0.015625)"/>
       </defs>
       <use xlink:href="#DejaVuSans-37"/>
       <use xlink:href="#DejaVuSans-35" x="63.623047"/>
      </g>
     </g>
    </g>
    <g id="xtick_5">
     <g id="line2d_9">
      <path d="M 236.975715 307.584 
L 236.975715 41.472 
" clip-path="url(#pb288a7a6b8)" style="fill: none; stroke: #b0b0b0; stroke-width: 0.8; stroke-linecap: square"/>
     </g>
     <g id="line2d_10">
      <g>
       <use xlink:href="#m197afaec08" x="236.975715" y="307.584" style="stroke: #000000; stroke-width: 0.8"/>
      </g>
     </g>
     <g id="text_5">
      <!-- 100 -->
      <g transform="translate(227.431965 322.182437) scale(0.1 -0.1)">
       <defs>
        <path id="DejaVuSans-31" d="M 794 531 
L 1825 531 
L 1825 4091 
L 703 3866 
L 703 4441 
L 1819 4666 
L 2450 4666 
L 2450 531 
L 3481 531 
L 3481 0 
L 794 0 
L 794 531 
z
" transform="scale(0.015625)"/>
       </defs>
       <use xlink:href="#DejaVuSans-31"/>
       <use xlink:href="#DejaVuSans-30" x="63.623047"/>
       <use xlink:href="#DejaVuSans-30" x="127.246094"/>
      </g>
     </g>
    </g>
    <g id="xtick_6">
     <g id="line2d_11">
      <path d="M 277.761462 307.584 
L 277.761462 41.472 
" clip-path="url(#pb288a7a6b8)" style="fill: none; stroke: #b0b0b0; stroke-width: 0.8; stroke-linecap: square"/>
     </g>
     <g id="line2d_12">
      <g>
       <use xlink:href="#m197afaec08" x="277.761462" y="307.584" style="stroke: #000000; stroke-width: 0.8"/>
      </g>
     </g>
     <g id="text_6">
      <!-- 125 -->
      <g transform="translate(268.217712 322.182437) scale(0.1 -0.1)">
       <use xlink:href="#DejaVuSans-31"/>
       <use xlink:href="#DejaVuSans-32" x="63.623047"/>
       <use xlink:href="#DejaVuSans-35" x="127.246094"/>
      </g>
     </g>
    </g>
    <g id="xtick_7">
     <g id="line2d_13">
      <path d="M 318.547209 307.584 
L 318.547209 41.472 
" clip-path="url(#pb288a7a6b8)" style="fill: none; stroke: #b0b0b0; stroke-width: 0.8; stroke-linecap: square"/>
     </g>
     <g id="line2d_14">
      <g>
       <use xlink:href="#m197afaec08" x="318.547209" y="307.584" style="stroke: #000000; stroke-width: 0.8"/>
      </g>
     </g>
     <g id="text_7">
      <!-- 150 -->
      <g transform="translate(309.003459 322.182437) scale(0.1 -0.1)">
       <use xlink:href="#DejaVuSans-31"/>
       <use xlink:href="#DejaVuSans-35" x="63.623047"/>
       <use xlink:href="#DejaVuSans-30" x="127.246094"/>
      </g>
     </g>
    </g>
    <g id="xtick_8">
     <g id="line2d_15">
      <path d="M 359.332956 307.584 
L 359.332956 41.472 
" clip-path="url(#pb288a7a6b8)" style="fill: none; stroke: #b0b0b0; stroke-width: 0.8; stroke-linecap: square"/>
     </g>
     <g id="line2d_16">
      <g>
       <use xlink:href="#m197afaec08" x="359.332956" y="307.584" style="stroke: #000000; stroke-width: 0.8"/>
      </g>
     </g>
     <g id="text_8">
      <!-- 175 -->
      <g transform="translate(349.789206 322.182437) scale(0.1 -0.1)">
       <use xlink:href="#DejaVuSans-31"/>
       <use xlink:href="#DejaVuSans-37" x="63.623047"/>
       <use xlink:href="#DejaVuSans-35" x="127.246094"/>
      </g>
     </g>
    </g>
    <g id="xtick_9">
     <g id="line2d_17">
      <path d="M 400.118703 307.584 
L 400.118703 41.472 
" clip-path="url(#pb288a7a6b8)" style="fill: none; stroke: #b0b0b0; stroke-width: 0.8; stroke-linecap: square"/>
     </g>
     <g id="line2d_18">
      <g>
       <use xlink:href="#m197afaec08" x="400.118703" y="307.584" style="stroke: #000000; stroke-width: 0.8"/>
      </g>
     </g>
     <g id="text_9">
      <!-- 200 -->
      <g transform="translate(390.574953 322.182437) scale(0.1 -0.1)">
       <use xlink:href="#DejaVuSans-32"/>
       <use xlink:href="#DejaVuSans-30" x="63.623047"/>
       <use xlink:href="#DejaVuSans-30" x="127.246094"/>
      </g>
     </g>
    </g>
    <g id="text_10">
     <!-- Generations -->
     <g transform="translate(205.662344 335.860562) scale(0.1 -0.1)">
      <defs>
       <path id="DejaVuSans-47" d="M 3809 666 
L 3809 1919 
L 2778 1919 
L 2778 2438 
L 4434 2438 
L 4434 434 
Q 4069 175 3628 42 
Q 3188 -91 2688 -91 
Q 1594 -91 976 548 
Q 359 1188 359 2328 
Q 359 3472 976 4111 
Q 1594 4750 2688 4750 
Q 3144 4750 3555 4637 
Q 3966 4525 4313 4306 
L 4313 3634 
Q 3963 3931 3569 4081 
Q 3175 4231 2741 4231 
Q 1884 4231 1454 3753 
Q 1025 3275 1025 2328 
Q 1025 1384 1454 906 
Q 1884 428 2741 428 
Q 3075 428 3337 486 
Q 3600 544 3809 666 
z
" transform="scale(0.015625)"/>
       <path id="DejaVuSans-65" d="M 3597 1894 
L 3597 1613 
L 953 1613 
Q 991 1019 1311 708 
Q 1631 397 2203 397 
Q 2534 397 2845 478 
Q 3156 559 3463 722 
L 3463 178 
Q 3153 47 2828 -22 
Q 2503 -91 2169 -91 
Q 1331 -91 842 396 
Q 353 884 353 1716 
Q 353 2575 817 3079 
Q 1281 3584 2069 3584 
Q 2775 3584 3186 3129 
Q 3597 2675 3597 1894 
z
M 3022 2063 
Q 3016 2534 2758 2815 
Q 2500 3097 2075 3097 
Q 1594 3097 1305 2825 
Q 1016 2553 972 2059 
L 3022 2063 
z
" transform="scale(0.015625)"/>
       <path id="DejaVuSans-6e" d="M 3513 2113 
L 3513 0 
L 2938 0 
L 2938 2094 
Q 2938 2591 2744 2837 
Q 2550 3084 2163 3084 
Q 1697 3084 1428 2787 
Q 1159 2491 1159 1978 
L 1159 0 
L 581 0 
L 581 3500 
L 1159 3500 
L 1159 2956 
Q 1366 3272 1645 3428 
Q 1925 3584 2291 3584 
Q 2894 3584 3203 3211 
Q 3513 2838 3513 2113 
z
" transform="scale(0.015625)"/>
       <path id="DejaVuSans-72" d="M 2631 2963 
Q 2534 3019 2420 3045 
Q 2306 3072 2169 3072 
Q 1681 3072 1420 2755 
Q 1159 2438 1159 1844 
L 1159 0 
L 581 0 
L 581 3500 
L 1159 3500 
L 1159 2956 
Q 1341 3275 1631 3429 
Q 1922 3584 2338 3584 
Q 2397 3584 2469 3576 
Q 2541 3569 2628 3553 
L 2631 2963 
z
" transform="scale(0.015625)"/>
       <path id="DejaVuSans-61" d="M 2194 1759 
Q 1497 1759 1228 1600 
Q 959 1441 959 1056 
Q 959 750 1161 570 
Q 1363 391 1709 391 
Q 2188 391 2477 730 
Q 2766 1069 2766 1631 
L 2766 1759 
L 2194 1759 
z
M 3341 1997 
L 3341 0 
L 2766 0 
L 2766 531 
Q 2569 213 2275 61 
Q 1981 -91 1556 -91 
Q 1019 -91 701 211 
Q 384 513 384 1019 
Q 384 1609 779 1909 
Q 1175 2209 1959 2209 
L 2766 2209 
L 2766 2266 
Q 2766 2663 2505 2880 
Q 2244 3097 1772 3097 
Q 1472 3097 1187 3025 
Q 903 2953 641 2809 
L 641 3341 
Q 956 3463 1253 3523 
Q 1550 3584 1831 3584 
Q 2591 3584 2966 3190 
Q 3341 2797 3341 1997 
z
" transform="scale(0.015625)"/>
       <path id="DejaVuSans-74" d="M 1172 4494 
L 1172 3500 
L 2356 3500 
L 2356 3053 
L 1172 3053 
L 1172 1153 
Q 1172 725 1289 603 
Q 1406 481 1766 481 
L 2356 481 
L 2356 0 
L 1766 0 
Q 1100 0 847 248 
Q 594 497 594 1153 
L 594 3053 
L 172 3053 
L 172 3500 
L 594 3500 
L 594 4494 
L 1172 4494 
z
" transform="scale(0.015625)"/>
       <path id="DejaVuSans-69" d="M 603 3500 
L 1178 3500 
L 1178 0 
L 603 0 
L 603 3500 
z
M 603 4863 
L 1178 4863 
L 1178 4134 
L 603 4134 
L 603 4863 
z
" transform="scale(0.015625)"/>
       <path id="DejaVuSans-6f" d="M 1959 3097 
Q 1497 3097 1228 2736 
Q 959 2375 959 1747 
Q 959 1119 1226 758 
Q 1494 397 1959 397 
Q 2419 397 2687 759 
Q 2956 1122 2956 1747 
Q 2956 2369 2687 2733 
Q 2419 3097 1959 3097 
z
M 1959 3584 
Q 2709 3584 3137 3096 
Q 3566 2609 3566 1747 
Q 3566 888 3137 398 
Q 2709 -91 1959 -91 
Q 1206 -91 779 398 
Q 353 888 353 1747 
Q 353 2609 779 3096 
Q 1206 3584 1959 3584 
z
" transform="scale(0.015625)"/>
       <path id="DejaVuSans-73" d="M 2834 3397 
L 2834 2853 
Q 2591 2978 2328 3040 
Q 2066 3103 1784 3103 
Q 1356 3103 1142 2972 
Q 928 2841 928 2578 
Q 928 2378 1081 2264 
Q 1234 2150 1697 2047 
L 1894 2003 
Q 2506 1872 2764 1633 
Q 3022 1394 3022 966 
Q 3022 478 2636 193 
Q 2250 -91 1575 -91 
Q 1294 -91 989 -36 
Q 684 19 347 128 
L 347 722 
Q 666 556 975 473 
Q 1284 391 1588 391 
Q 1994 391 2212 530 
Q 2431 669 2431 922 
Q 2431 1156 2273 1281 
Q 2116 1406 1581 1522 
L 1381 1569 
Q 847 1681 609 1914 
Q 372 2147 372 2553 
Q 372 3047 722 3315 
Q 1072 3584 1716 3584 
Q 2034 3584 2315 3537 
Q 2597 3491 2834 3397 
z
" transform="scale(0.015625)"/>
      </defs>
      <use xlink:href="#DejaVuSans-47"/>
      <use xlink:href="#DejaVuSans-65" x="77.490234"/>
      <use xlink:href="#DejaVuSans-6e" x="139.013672"/>
      <use xlink:href="#DejaVuSans-65" x="202.392578"/>
      <use xlink:href="#DejaVuSans-72" x="263.916016"/>
      <use xlink:href="#DejaVuSans-61" x="305.029297"/>
      <use xlink:href="#DejaVuSans-74" x="366.308594"/>
      <use xlink:href="#DejaVuSans-69" x="405.517578"/>
      <use xlink:href="#DejaVuSans-6f" x="433.300781"/>
      <use xlink:href="#DejaVuSans-6e" x="494.482422"/>
      <use xlink:href="#DejaVuSans-73" x="557.861328"/>
     </g>
    </g>
   </g>
   <g id="matplotlib.axis_2">
    <g id="ytick_1">
     <g id="line2d_19">
      <path d="M 57.6 305.574546 
L 414.72 305.574546 
" clip-path="url(#pb288a7a6b8)" style="fill: none; stroke: #b0b0b0; stroke-width: 0.8; stroke-linecap: square"/>
     </g>
     <g id="line2d_20">
      <defs>
       <path id="m453e5f5e15" d="M 0 0 
L -3.5 0 
" style="stroke: #000000; stroke-width: 0.8"/>
      </defs>
      <g>
       <use xlink:href="#m453e5f5e15" x="57.6" y="305.574546" style="stroke: #000000; stroke-width: 0.8"/>
      </g>
     </g>
     <g id="text_11">
      <!-- −20 -->
      <g transform="translate(29.495313 309.373765) scale(0.1 -0.1)">
       <defs>
        <path id="DejaVuSans-2212" d="M 678 2272 
L 4684 2272 
L 4684 1741 
L 678 1741 
L 678 2272 
z
" transform="scale(0.015625)"/>
       </defs>
       <use xlink:href="#DejaVuSans-2212"/>
       <use xlink:href="#DejaVuSans-32" x="83.789062"/>
       <use xlink:href="#DejaVuSans-30" x="147.412109"/>
      </g>
     </g>
    </g>
    <g id="ytick_2">
     <g id="line2d_21">
      <path d="M 57.6 261.762232 
L 414.72 261.762232 
" clip-path="url(#pb288a7a6b8)" style="fill: none; stroke: #b0b0b0; stroke-width: 0.8; stroke-linecap: square"/>
     </g>
     <g id="line2d_22">
      <g>
       <use xlink:href="#m453e5f5e15" x="57.6" y="261.762232" style="stroke: #000000; stroke-width: 0.8"/>
      </g>
     </g>
     <g id="text_12">
      <!-- −10 -->
      <g transform="translate(29.495313 265.56145) scale(0.1 -0.1)">
       <use xlink:href="#DejaVuSans-2212"/>
       <use xlink:href="#DejaVuSans-31" x="83.789062"/>
       <use xlink:href="#DejaVuSans-30" x="147.412109"/>
      </g>
     </g>
    </g>
    <g id="ytick_3">
     <g id="line2d_23">
      <path d="M 57.6 217.949917 
L 414.72 217.949917 
" clip-path="url(#pb288a7a6b8)" style="fill: none; stroke: #b0b0b0; stroke-width: 0.8; stroke-linecap: square"/>
     </g>
     <g id="line2d_24">
      <g>
       <use xlink:href="#m453e5f5e15" x="57.6" y="217.949917" style="stroke: #000000; stroke-width: 0.8"/>
      </g>
     </g>
     <g id="text_13">
      <!-- 0 -->
      <g transform="translate(44.2375 221.749136) scale(0.1 -0.1)">
       <use xlink:href="#DejaVuSans-30"/>
      </g>
     </g>
    </g>
    <g id="ytick_4">
     <g id="line2d_25">
      <path d="M 57.6 174.137603 
L 414.72 174.137603 
" clip-path="url(#pb288a7a6b8)" style="fill: none; stroke: #b0b0b0; stroke-width: 0.8; stroke-linecap: square"/>
     </g>
     <g id="line2d_26">
      <g>
       <use xlink:href="#m453e5f5e15" x="57.6" y="174.137603" style="stroke: #000000; stroke-width: 0.8"/>
      </g>
     </g>
     <g id="text_14">
      <!-- 10 -->
      <g transform="translate(37.875 177.936821) scale(0.1 -0.1)">
       <use xlink:href="#DejaVuSans-31"/>
       <use xlink:href="#DejaVuSans-30" x="63.623047"/>
      </g>
     </g>
    </g>
    <g id="ytick_5">
     <g id="line2d_27">
      <path d="M 57.6 130.325288 
L 414.72 130.325288 
" clip-path="url(#pb288a7a6b8)" style="fill: none; stroke: #b0b0b0; stroke-width: 0.8; stroke-linecap: square"/>
     </g>
     <g id="line2d_28">
      <g>
       <use xlink:href="#m453e5f5e15" x="57.6" y="130.325288" style="stroke: #000000; stroke-width: 0.8"/>
      </g>
     </g>
     <g id="text_15">
      <!-- 20 -->
      <g transform="translate(37.875 134.124507) scale(0.1 -0.1)">
       <use xlink:href="#DejaVuSans-32"/>
       <use xlink:href="#DejaVuSans-30" x="63.623047"/>
      </g>
     </g>
    </g>
    <g id="ytick_6">
     <g id="line2d_29">
      <path d="M 57.6 86.512974 
L 414.72 86.512974 
" clip-path="url(#pb288a7a6b8)" style="fill: none; stroke: #b0b0b0; stroke-width: 0.8; stroke-linecap: square"/>
     </g>
     <g id="line2d_30">
      <g>
       <use xlink:href="#m453e5f5e15" x="57.6" y="86.512974" style="stroke: #000000; stroke-width: 0.8"/>
      </g>
     </g>
     <g id="text_16">
      <!-- 30 -->
      <g transform="translate(37.875 90.312192) scale(0.1 -0.1)">
       <defs>
        <path id="DejaVuSans-33" d="M 2597 2516 
Q 3050 2419 3304 2112 
Q 3559 1806 3559 1356 
Q 3559 666 3084 287 
Q 2609 -91 1734 -91 
Q 1441 -91 1130 -33 
Q 819 25 488 141 
L 488 750 
Q 750 597 1062 519 
Q 1375 441 1716 441 
Q 2309 441 2620 675 
Q 2931 909 2931 1356 
Q 2931 1769 2642 2001 
Q 2353 2234 1838 2234 
L 1294 2234 
L 1294 2753 
L 1863 2753 
Q 2328 2753 2575 2939 
Q 2822 3125 2822 3475 
Q 2822 3834 2567 4026 
Q 2313 4219 1838 4219 
Q 1578 4219 1281 4162 
Q 984 4106 628 3988 
L 628 4550 
Q 988 4650 1302 4700 
Q 1616 4750 1894 4750 
Q 2613 4750 3031 4423 
Q 3450 4097 3450 3541 
Q 3450 3153 3228 2886 
Q 3006 2619 2597 2516 
z
" transform="scale(0.015625)"/>
       </defs>
       <use xlink:href="#DejaVuSans-33"/>
       <use xlink:href="#DejaVuSans-30" x="63.623047"/>
      </g>
     </g>
    </g>
    <g id="ytick_7">
     <g id="line2d_31">
      <path d="M 57.6 42.700659 
L 414.72 42.700659 
" clip-path="url(#pb288a7a6b8)" style="fill: none; stroke: #b0b0b0; stroke-width: 0.8; stroke-linecap: square"/>
     </g>
     <g id="line2d_32">
      <g>
       <use xlink:href="#m453e5f5e15" x="57.6" y="42.700659" style="stroke: #000000; stroke-width: 0.8"/>
      </g>
     </g>
     <g id="text_17">
      <!-- 40 -->
      <g transform="translate(37.875 46.499878) scale(0.1 -0.1)">
       <defs>
        <path id="DejaVuSans-34" d="M 2419 4116 
L 825 1625 
L 2419 1625 
L 2419 4116 
z
M 2253 4666 
L 3047 4666 
L 3047 1625 
L 3713 1625 
L 3713 1100 
L 3047 1100 
L 3047 0 
L 2419 0 
L 2419 1100 
L 313 1100 
L 313 1709 
L 2253 4666 
z
" transform="scale(0.015625)"/>
       </defs>
       <use xlink:href="#DejaVuSans-34"/>
       <use xlink:href="#DejaVuSans-30" x="63.623047"/>
      </g>
     </g>
    </g>
    <g id="text_18">
     <!-- Fitness -->
     <g transform="translate(23.415625 191.845187) rotate(-90) scale(0.1 -0.1)">
      <defs>
       <path id="DejaVuSans-46" d="M 628 4666 
L 3309 4666 
L 3309 4134 
L 1259 4134 
L 1259 2759 
L 3109 2759 
L 3109 2228 
L 1259 2228 
L 1259 0 
L 628 0 
L 628 4666 
z
" transform="scale(0.015625)"/>
      </defs>
      <use xlink:href="#DejaVuSans-46"/>
      <use xlink:href="#DejaVuSans-69" x="50.269531"/>
      <use xlink:href="#DejaVuSans-74" x="78.052734"/>
      <use xlink:href="#DejaVuSans-6e" x="117.261719"/>
      <use xlink:href="#DejaVuSans-65" x="180.640625"/>
      <use xlink:href="#DejaVuSans-73" x="242.164062"/>
      <use xlink:href="#DejaVuSans-73" x="294.263672"/>
     </g>
    </g>
   </g>
   <g id="line2d_33">
    <path d="M 73.832727 260.973232 
L 75.464157 244.417624 
L 77.095587 239.057219 
L 78.727017 230.356725 
L 80.358447 211.025603 
L 81.989877 206.238612 
L 83.621307 207.655237 
L 85.252736 201.225333 
L 86.884166 199.962869 
L 88.515596 191.304936 
L 90.147026 187.417691 
L 91.778456 188.411143 
L 93.409886 188.655804 
L 95.041316 186.33291 
L 96.672746 187.814384 
L 98.304175 188.126639 
L 99.935605 188.575603 
L 101.567035 185.585849 
L 103.198465 188.676266 
L 104.829895 185.663133 
L 106.461325 186.302216 
L 108.092755 187.540562 
L 109.724185 190.537279 
L 111.355614 187.431237 
L 112.987044 184.943272 
L 114.618474 189.327939 
L 116.249904 186.309498 
L 117.881334 188.352254 
L 119.512764 185.257805 
L 121.144194 184.654847 
L 122.775624 188.386709 
L 124.407053 186.542725 
L 126.038483 181.586372 
L 127.669913 184.613299 
L 129.301343 186.66396 
L 130.932773 189.457037 
L 132.564203 181.257864 
L 134.195633 187.325356 
L 135.827063 187.402237 
L 137.458492 181.81436 
L 140.721352 185.726219 
L 142.352782 179.104529 
L 143.984212 181.223561 
L 145.615642 184.871847 
L 147.247072 180.850067 
L 148.878502 186.790733 
L 150.509931 185.222885 
L 152.141361 182.528793 
L 153.772791 185.916687 
L 155.404221 181.304208 
L 157.035651 181.52052 
L 158.667081 182.543746 
L 160.298511 178.413786 
L 161.929941 179.242765 
L 163.56137 184.276259 
L 165.1928 180.11732 
L 166.82423 179.473194 
L 168.45566 183.650775 
L 170.08709 182.116012 
L 171.71852 182.104954 
L 173.34995 185.143208 
L 174.98138 184.233684 
L 176.61281 184.075788 
L 178.244239 179.188836 
L 179.875669 181.050384 
L 181.507099 184.305816 
L 183.138529 182.293496 
L 184.769959 182.315553 
L 186.401389 180.270974 
L 188.032819 183.445971 
L 189.664249 184.286049 
L 191.295678 184.028884 
L 192.927108 185.888652 
L 194.558538 180.480535 
L 196.189968 181.601035 
L 197.821398 178.500827 
L 199.452828 182.74437 
L 202.715688 185.171294 
L 204.347117 179.361176 
L 205.978547 180.62146 
L 207.609977 182.50282 
L 209.241407 183.225307 
L 210.872837 176.566617 
L 212.504267 179.610093 
L 214.135697 183.836563 
L 215.767127 182.299813 
L 217.398556 185.631412 
L 219.029986 180.772858 
L 220.661416 178.291812 
L 222.292846 180.683219 
L 223.924276 181.416984 
L 225.555706 178.248749 
L 227.187136 181.062118 
L 228.818566 177.654998 
L 230.449995 174.917152 
L 232.081425 182.788972 
L 233.712855 182.648034 
L 235.344285 180.577371 
L 236.975715 183.059935 
L 238.607145 183.945296 
L 240.238575 179.691453 
L 241.870005 182.105711 
L 243.501434 184.205614 
L 245.132864 178.895071 
L 246.764294 179.57533 
L 248.395724 188.120719 
L 250.027154 181.967698 
L 251.658584 182.395189 
L 253.290014 179.15029 
L 254.921444 180.679102 
L 256.552873 185.302153 
L 258.184303 183.412891 
L 259.815733 176.011471 
L 261.447163 179.790918 
L 263.078593 182.475834 
L 264.710023 187.34542 
L 266.341453 181.909702 
L 267.972883 177.38061 
L 269.604312 181.168313 
L 271.235742 180.572406 
L 272.867172 182.072074 
L 274.498602 179.737807 
L 276.130032 182.932423 
L 277.761462 181.687674 
L 279.392892 185.249299 
L 281.024322 180.511297 
L 282.655751 182.326608 
L 284.287181 178.810013 
L 285.918611 182.050484 
L 287.550041 181.421487 
L 289.181471 181.071534 
L 290.812901 177.364869 
L 292.444331 180.103788 
L 295.70719 181.757739 
L 297.33862 179.835238 
L 298.97005 185.866086 
L 300.60148 181.331098 
L 302.23291 182.758533 
L 303.86434 179.515037 
L 305.49577 186.071606 
L 307.1272 179.99181 
L 308.75863 183.075784 
L 310.390059 181.783398 
L 312.021489 183.481259 
L 313.652919 178.030364 
L 315.284349 182.693374 
L 316.915779 183.347511 
L 318.547209 180.725633 
L 320.178639 184.453548 
L 321.810069 183.677132 
L 323.441498 184.937947 
L 325.072928 183.438098 
L 326.704358 180.480602 
L 328.335788 183.355127 
L 329.967218 176.309829 
L 331.598648 182.12967 
L 333.230078 183.073372 
L 334.861508 257.539922 
L 336.492937 242.263359 
L 338.124367 236.394388 
L 339.755797 224.321978 
L 341.387227 216.985214 
L 343.018657 217.405745 
L 344.650087 212.722108 
L 346.281517 210.131117 
L 347.912947 220.719513 
L 349.544376 215.219158 
L 351.175806 215.187827 
L 352.807236 207.530499 
L 354.438666 201.547571 
L 356.070096 197.5211 
L 357.701526 191.811959 
L 359.332956 188.764961 
L 360.964386 184.624015 
L 362.595815 183.083416 
L 364.227245 180.300399 
L 365.858675 183.904611 
L 367.490105 182.501795 
L 369.121535 184.02931 
L 370.752965 188.433069 
L 372.384395 188.158811 
L 374.015825 185.90189 
L 375.647254 187.080691 
L 377.278684 184.386973 
L 378.910114 185.131229 
L 380.541544 186.529631 
L 382.172974 183.002936 
L 383.804404 184.404097 
L 385.435834 184.77607 
L 387.067264 184.300169 
L 388.698693 186.316151 
L 390.330123 183.642884 
L 391.961553 182.017351 
L 393.592983 186.140997 
L 395.224413 188.003905 
L 396.855843 186.181075 
L 398.487273 180.762803 
L 398.487273 180.762803 
" clip-path="url(#pb288a7a6b8)" style="fill: none; stroke: #0000ff; stroke-width: 1.5; stroke-linecap: square"/>
   </g>
   <g id="line2d_34">
    <path d="M 73.832727 295.488 
L 75.464157 273.707984 
L 77.095587 269.648618 
L 78.727017 258.313553 
L 80.358447 237.308077 
L 81.989877 230.215682 
L 83.621307 236.867481 
L 85.252736 228.262308 
L 86.884166 235.699449 
L 88.515596 222.180214 
L 90.147026 218.900483 
L 91.778456 228.029801 
L 93.409886 220.046663 
L 95.041316 221.64596 
L 96.672746 222.23886 
L 98.304175 224.872997 
L 99.935605 226.753655 
L 101.567035 221.585814 
L 103.198465 224.890174 
L 104.829895 223.282302 
L 106.461325 224.078631 
L 108.092755 222.390575 
L 109.724185 232.168842 
L 111.355614 225.310419 
L 112.987044 222.159381 
L 114.618474 224.538437 
L 116.249904 221.980143 
L 117.881334 227.869329 
L 119.512764 222.407808 
L 121.144194 217.827499 
L 122.775624 225.613854 
L 124.407053 224.119394 
L 126.038483 218.554598 
L 127.669913 223.102417 
L 129.301343 226.766331 
L 130.932773 232.600899 
L 132.564203 217.44413 
L 134.195633 228.252199 
L 135.827063 228.536196 
L 137.458492 217.880041 
L 139.089922 223.270091 
L 140.721352 225.32627 
L 142.352782 218.953904 
L 143.984212 221.089742 
L 145.615642 222.722205 
L 147.247072 221.762627 
L 148.878502 230.097301 
L 150.509931 223.343384 
L 152.141361 222.573722 
L 153.772791 226.287795 
L 155.404221 218.307043 
L 157.035651 218.151106 
L 158.667081 220.972479 
L 160.298511 213.612276 
L 161.929941 213.370644 
L 163.56137 223.893779 
L 165.1928 216.158253 
L 166.82423 216.812749 
L 168.45566 220.65306 
L 170.08709 222.304378 
L 171.71852 218.624855 
L 173.34995 225.58416 
L 174.98138 221.514404 
L 176.61281 222.582068 
L 178.244239 217.488459 
L 179.875669 221.796037 
L 181.507099 221.331038 
L 183.138529 218.509021 
L 184.769959 221.33889 
L 186.401389 218.196244 
L 188.032819 222.733643 
L 189.664249 223.207064 
L 191.295678 228.121081 
L 192.927108 226.775435 
L 194.558538 215.84938 
L 196.189968 219.840877 
L 197.821398 214.573781 
L 199.452828 218.931126 
L 201.084258 225.391424 
L 202.715688 225.598576 
L 204.347117 219.774938 
L 205.978547 218.425516 
L 207.609977 218.931906 
L 209.241407 222.183286 
L 210.872837 212.904733 
L 212.504267 215.407098 
L 214.135697 225.908635 
L 215.767127 218.538869 
L 217.398556 227.092468 
L 219.029986 217.316139 
L 220.661416 216.07873 
L 222.292846 218.48654 
L 223.924276 221.500445 
L 225.555706 214.60291 
L 227.187136 214.748788 
L 228.818566 213.82204 
L 230.449995 207.701075 
L 232.081425 224.897355 
L 233.712855 219.621287 
L 235.344285 216.197515 
L 236.975715 220.618968 
L 238.607145 223.331319 
L 240.238575 218.841996 
L 241.870005 220.541039 
L 243.501434 223.983943 
L 245.132864 212.851586 
L 246.764294 216.629661 
L 248.395724 227.10981 
L 250.027154 220.727395 
L 251.658584 221.968198 
L 253.290014 217.202982 
L 254.921444 219.897066 
L 256.552873 223.32021 
L 258.184303 224.882355 
L 259.815733 211.535254 
L 261.447163 216.807945 
L 263.078593 217.833359 
L 264.710023 225.280321 
L 267.972883 212.691539 
L 269.604312 221.789025 
L 271.235742 219.31419 
L 272.867172 220.528058 
L 274.498602 213.839231 
L 276.130032 220.434153 
L 277.761462 216.917687 
L 279.392892 225.382413 
L 281.024322 213.883688 
L 282.655751 223.453254 
L 284.287181 216.50443 
L 285.918611 219.759501 
L 287.550041 217.098376 
L 289.181471 217.040705 
L 290.812901 212.565791 
L 292.444331 216.838563 
L 294.075761 216.280775 
L 295.70719 223.842117 
L 297.33862 216.573307 
L 298.97005 225.012875 
L 300.60148 216.718092 
L 302.23291 218.919002 
L 303.86434 217.174402 
L 305.49577 228.095661 
L 307.1272 219.146305 
L 308.75863 221.797334 
L 310.390059 216.881301 
L 312.021489 225.84882 
L 313.652919 215.392759 
L 315.284349 221.57888 
L 316.915779 222.230737 
L 318.547209 217.075484 
L 320.178639 224.741272 
L 321.810069 222.326112 
L 323.441498 221.778377 
L 325.072928 223.357507 
L 326.704358 216.366594 
L 328.335788 221.84684 
L 329.967218 211.404768 
L 331.598648 224.727148 
L 333.230078 220.380691 
L 334.861508 289.325831 
L 336.492937 270.317082 
L 338.124367 264.820183 
L 339.755797 252.658549 
L 341.387227 245.815088 
L 343.018657 247.658685 
L 344.650087 238.153119 
L 346.281517 237.349463 
L 347.912947 250.184695 
L 349.544376 245.975716 
L 351.175806 245.026641 
L 352.807236 235.077322 
L 354.438666 228.594804 
L 356.070096 230.321907 
L 357.701526 220.629395 
L 359.332956 222.047382 
L 360.964386 218.95447 
L 362.595815 217.864634 
L 364.227245 215.619856 
L 365.858675 217.343315 
L 367.490105 216.892042 
L 369.121535 221.48036 
L 370.752965 225.320757 
L 372.384395 225.026221 
L 374.015825 222.96234 
L 375.647254 225.31232 
L 377.278684 220.474427 
L 378.910114 225.039506 
L 380.541544 223.414433 
L 382.172974 219.491669 
L 383.804404 220.670362 
L 385.435834 221.520771 
L 387.067264 221.499323 
L 388.698693 225.469594 
L 390.330123 217.968887 
L 391.961553 218.471431 
L 393.592983 224.306619 
L 395.224413 229.261454 
L 396.855843 223.17919 
L 398.487273 215.349092 
L 398.487273 215.349092 
" clip-path="url(#pb288a7a6b8)" style="fill: none; stroke-dasharray: 9.6,2.4,1.5,2.4; stroke-dashoffset: 0; stroke: #008000; stroke-width: 1.5"/>
   </g>
   <g id="line2d_35">
    <path d="M 73.832727 226.458464 
L 75.464157 215.127265 
L 77.095587 208.465819 
L 78.727017 202.399897 
L 80.358447 184.74313 
L 81.989877 182.261541 
L 83.621307 178.442993 
L 85.252736 174.188358 
L 86.884166 164.226289 
L 88.515596 160.429657 
L 90.147026 155.934899 
L 91.778456 148.792485 
L 93.409886 157.264944 
L 95.041316 151.01986 
L 96.672746 153.389908 
L 98.304175 151.38028 
L 99.935605 150.397552 
L 101.567035 149.585884 
L 103.198465 152.462357 
L 104.829895 148.043963 
L 106.461325 148.525801 
L 108.092755 152.690549 
L 109.724185 148.905715 
L 111.355614 149.552055 
L 112.987044 147.727163 
L 114.618474 154.11744 
L 116.249904 150.638854 
L 117.881334 148.835179 
L 119.512764 148.107801 
L 121.144194 151.482194 
L 122.775624 151.159564 
L 124.407053 148.966056 
L 126.038483 144.618145 
L 127.669913 146.124181 
L 129.301343 146.561589 
L 130.932773 146.313176 
L 132.564203 145.071598 
L 134.195633 146.398512 
L 135.827063 146.268278 
L 137.458492 145.748678 
L 139.089922 144.12065 
L 140.721352 146.126168 
L 142.352782 139.255155 
L 143.984212 141.35738 
L 145.615642 147.021489 
L 147.247072 139.937506 
L 150.509931 147.102385 
L 152.141361 142.483864 
L 153.772791 145.545579 
L 155.404221 144.301374 
L 157.035651 144.889934 
L 158.667081 144.115012 
L 160.298511 143.215296 
L 161.929941 145.114886 
L 163.56137 144.658739 
L 165.1928 144.076388 
L 166.82423 142.133639 
L 168.45566 146.648489 
L 170.08709 141.927645 
L 171.71852 145.585054 
L 173.34995 144.702255 
L 174.98138 146.952965 
L 176.61281 145.569508 
L 178.244239 140.889213 
L 179.875669 140.30473 
L 181.507099 147.280595 
L 183.138529 146.077971 
L 184.769959 143.292216 
L 186.401389 142.345703 
L 188.032819 144.158299 
L 189.664249 145.365033 
L 191.295678 139.936687 
L 192.927108 145.00187 
L 194.558538 145.11169 
L 196.189968 143.361193 
L 197.821398 142.427872 
L 199.452828 146.557614 
L 201.084258 142.39435 
L 202.715688 144.744013 
L 204.347117 138.947414 
L 205.978547 142.817404 
L 207.609977 146.073734 
L 209.241407 144.267329 
L 210.872837 140.228502 
L 212.504267 143.813087 
L 214.135697 141.764491 
L 215.767127 146.060756 
L 217.398556 144.170356 
L 219.029986 144.229576 
L 220.661416 140.504895 
L 222.292846 142.879898 
L 223.924276 141.333522 
L 225.555706 141.894588 
L 227.187136 147.375448 
L 228.818566 141.487956 
L 230.449995 142.13323 
L 232.081425 140.680588 
L 233.712855 145.674781 
L 235.344285 144.957227 
L 236.975715 145.500901 
L 238.607145 144.559274 
L 240.238575 140.540909 
L 241.870005 143.670383 
L 243.501434 144.427286 
L 245.132864 144.938557 
L 246.764294 142.520999 
L 248.395724 149.131627 
L 250.027154 143.208002 
L 251.658584 142.82218 
L 253.290014 141.097599 
L 254.921444 141.461138 
L 256.552873 147.284097 
L 258.184303 141.943427 
L 259.815733 140.487689 
L 261.447163 142.773892 
L 263.078593 147.118309 
L 264.710023 149.410519 
L 266.341453 144.66863 
L 267.972883 142.069681 
L 269.604312 140.547601 
L 271.235742 141.830623 
L 272.867172 143.61609 
L 274.498602 145.636384 
L 276.130032 145.430693 
L 277.761462 146.457661 
L 279.392892 145.116185 
L 281.024322 147.138907 
L 282.655751 141.199962 
L 284.287181 141.115596 
L 285.918611 144.341468 
L 287.550041 145.744598 
L 289.181471 145.102364 
L 290.812901 142.163948 
L 292.444331 143.369013 
L 294.075761 145.53121 
L 295.70719 139.67336 
L 298.97005 146.719297 
L 300.60148 145.944105 
L 302.23291 146.598064 
L 303.86434 141.855673 
L 305.49577 144.047552 
L 307.1272 140.837314 
L 308.75863 144.354234 
L 310.390059 146.685495 
L 312.021489 141.113698 
L 313.652919 140.667969 
L 315.284349 143.807868 
L 316.915779 144.464285 
L 318.547209 144.375783 
L 320.178639 144.165824 
L 321.810069 145.028151 
L 323.441498 148.097517 
L 325.072928 143.51869 
L 326.704358 144.59461 
L 328.335788 144.863415 
L 329.967218 141.21489 
L 331.598648 139.532192 
L 333.230078 145.766053 
L 334.861508 225.754014 
L 336.492937 214.209637 
L 338.124367 207.968594 
L 339.755797 195.985407 
L 341.387227 188.155341 
L 343.018657 187.152805 
L 344.650087 187.291098 
L 346.281517 182.912771 
L 347.912947 191.254332 
L 349.544376 184.4626 
L 351.175806 185.349013 
L 354.438666 174.500337 
L 356.070096 164.720293 
L 357.701526 162.994524 
L 359.332956 155.48254 
L 360.964386 150.293559 
L 362.595815 148.302198 
L 364.227245 144.980942 
L 365.858675 150.465908 
L 367.490105 148.111549 
L 369.121535 146.57826 
L 370.752965 151.54538 
L 372.384395 151.2914 
L 374.015825 148.841441 
L 375.647254 148.849062 
L 377.278684 148.299519 
L 378.910114 145.222951 
L 380.541544 149.64483 
L 382.172974 146.514203 
L 383.804404 148.137832 
L 385.435834 148.031369 
L 387.067264 147.101015 
L 388.698693 147.162707 
L 390.330123 149.316881 
L 391.961553 145.563272 
L 393.592983 147.975375 
L 395.224413 146.746355 
L 396.855843 149.18296 
L 398.487273 146.176514 
L 398.487273 146.176514 
" clip-path="url(#pb288a7a6b8)" style="fill: none; stroke-dasharray: 9.6,2.4,1.5,2.4; stroke-dashoffset: 0; stroke: #008000; stroke-width: 1.5"/>
   </g>
   <g id="line2d_36">
    <path d="M 73.832727 182.448019 
L 77.095587 182.448019 
L 78.727017 178.788037 
L 80.358447 150.570624 
L 81.989877 142.271129 
L 85.252736 142.271129 
L 86.884166 115.518379 
L 90.147026 115.518379 
L 91.778456 112.700691 
L 103.198465 112.700691 
L 104.829895 111.628451 
L 112.987044 111.628451 
L 114.618474 94.741627 
L 163.56137 94.741627 
L 165.1928 92.786209 
L 168.45566 92.786209 
L 170.08709 53.568 
L 333.230078 53.568 
L 334.861508 194.234741 
L 336.492937 170.955877 
L 341.387227 170.955877 
L 343.018657 170.45333 
L 344.650087 166.086665 
L 347.912947 166.086665 
L 349.544376 164.771261 
L 351.175806 140.790817 
L 352.807236 140.790817 
L 354.438666 118.674355 
L 359.332956 118.674355 
L 360.964386 103.575105 
L 362.595815 103.575105 
L 364.227245 101.264422 
L 365.858675 101.264422 
L 367.490105 96.488187 
L 398.487273 96.488187 
L 398.487273 96.488187 
" clip-path="url(#pb288a7a6b8)" style="fill: none; stroke: #ff0000; stroke-width: 1.5; stroke-linecap: square"/>
   </g>
   <g id="patch_3">
    <path d="M 57.6 307.584 
L 57.6 41.472 
" style="fill: none; stroke: #000000; stroke-width: 0.8; stroke-linejoin: miter; stroke-linecap: square"/>
   </g>
   <g id="patch_4">
    <path d="M 414.72 307.584 
L 414.72 41.472 
" style="fill: none; stroke: #000000; stroke-width: 0.8; stroke-linejoin: miter; stroke-linecap: square"/>
   </g>
   <g id="patch_5">
    <path d="M 57.6 307.584 
L 414.72 307.584 
" style="fill: none; stroke: #000000; stroke-width: 0.8; stroke-linejoin: miter; stroke-linecap: square"/>
   </g>
   <g id="patch_6">
    <path d="M 57.6 41.472 
L 414.72 41.472 
" style="fill: none; stroke: #000000; stroke-width: 0.8; stroke-linejoin: miter; stroke-linecap: square"/>
   </g>
   <g id="text_19">
    <!-- Population's average and best fitness -->
    <g transform="translate(123.529687 35.472) scale(0.12 -0.12)">
     <defs>
      <path id="DejaVuSans-50" d="M 1259 4147 
L 1259 2394 
L 2053 2394 
Q 2494 2394 2734 2622 
Q 2975 2850 2975 3272 
Q 2975 3691 2734 3919 
Q 2494 4147 2053 4147 
L 1259 4147 
z
M 628 4666 
L 2053 4666 
Q 2838 4666 3239 4311 
Q 3641 3956 3641 3272 
Q 3641 2581 3239 2228 
Q 2838 1875 2053 1875 
L 1259 1875 
L 1259 0 
L 628 0 
L 628 4666 
z
" transform="scale(0.015625)"/>
      <path id="DejaVuSans-70" d="M 1159 525 
L 1159 -1331 
L 581 -1331 
L 581 3500 
L 1159 3500 
L 1159 2969 
Q 1341 3281 1617 3432 
Q 1894 3584 2278 3584 
Q 2916 3584 3314 3078 
Q 3713 2572 3713 1747 
Q 3713 922 3314 415 
Q 2916 -91 2278 -91 
Q 1894 -91 1617 61 
Q 1341 213 1159 525 
z
M 3116 1747 
Q 3116 2381 2855 2742 
Q 2594 3103 2138 3103 
Q 1681 3103 1420 2742 
Q 1159 2381 1159 1747 
Q 1159 1113 1420 752 
Q 1681 391 2138 391 
Q 2594 391 2855 752 
Q 3116 1113 3116 1747 
z
" transform="scale(0.015625)"/>
      <path id="DejaVuSans-75" d="M 544 1381 
L 544 3500 
L 1119 3500 
L 1119 1403 
Q 1119 906 1312 657 
Q 1506 409 1894 409 
Q 2359 409 2629 706 
Q 2900 1003 2900 1516 
L 2900 3500 
L 3475 3500 
L 3475 0 
L 2900 0 
L 2900 538 
Q 2691 219 2414 64 
Q 2138 -91 1772 -91 
Q 1169 -91 856 284 
Q 544 659 544 1381 
z
M 1991 3584 
L 1991 3584 
z
" transform="scale(0.015625)"/>
      <path id="DejaVuSans-6c" d="M 603 4863 
L 1178 4863 
L 1178 0 
L 603 0 
L 603 4863 
z
" transform="scale(0.015625)"/>
      <path id="DejaVuSans-27" d="M 1147 4666 
L 1147 2931 
L 616 2931 
L 616 4666 
L 1147 4666 
z
" transform="scale(0.015625)"/>
      <path id="DejaVuSans-20" transform="scale(0.015625)"/>
      <path id="DejaVuSans-76" d="M 191 3500 
L 800 3500 
L 1894 563 
L 2988 3500 
L 3597 3500 
L 2284 0 
L 1503 0 
L 191 3500 
z
" transform="scale(0.015625)"/>
      <path id="DejaVuSans-67" d="M 2906 1791 
Q 2906 2416 2648 2759 
Q 2391 3103 1925 3103 
Q 1463 3103 1205 2759 
Q 947 2416 947 1791 
Q 947 1169 1205 825 
Q 1463 481 1925 481 
Q 2391 481 2648 825 
Q 2906 1169 2906 1791 
z
M 3481 434 
Q 3481 -459 3084 -895 
Q 2688 -1331 1869 -1331 
Q 1566 -1331 1297 -1286 
Q 1028 -1241 775 -1147 
L 775 -588 
Q 1028 -725 1275 -790 
Q 1522 -856 1778 -856 
Q 2344 -856 2625 -561 
Q 2906 -266 2906 331 
L 2906 616 
Q 2728 306 2450 153 
Q 2172 0 1784 0 
Q 1141 0 747 490 
Q 353 981 353 1791 
Q 353 2603 747 3093 
Q 1141 3584 1784 3584 
Q 2172 3584 2450 3431 
Q 2728 3278 2906 2969 
L 2906 3500 
L 3481 3500 
L 3481 434 
z
" transform="scale(0.015625)"/>
      <path id="DejaVuSans-64" d="M 2906 2969 
L 2906 4863 
L 3481 4863 
L 3481 0 
L 2906 0 
L 2906 525 
Q 2725 213 2448 61 
Q 2172 -91 1784 -91 
Q 1150 -91 751 415 
Q 353 922 353 1747 
Q 353 2572 751 3078 
Q 1150 3584 1784 3584 
Q 2172 3584 2448 3432 
Q 2725 3281 2906 2969 
z
M 947 1747 
Q 947 1113 1208 752 
Q 1469 391 1925 391 
Q 2381 391 2643 752 
Q 2906 1113 2906 1747 
Q 2906 2381 2643 2742 
Q 2381 3103 1925 3103 
Q 1469 3103 1208 2742 
Q 947 2381 947 1747 
z
" transform="scale(0.015625)"/>
      <path id="DejaVuSans-62" d="M 3116 1747 
Q 3116 2381 2855 2742 
Q 2594 3103 2138 3103 
Q 1681 3103 1420 2742 
Q 1159 2381 1159 1747 
Q 1159 1113 1420 752 
Q 1681 391 2138 391 
Q 2594 391 2855 752 
Q 3116 1113 3116 1747 
z
M 1159 2969 
Q 1341 3281 1617 3432 
Q 1894 3584 2278 3584 
Q 2916 3584 3314 3078 
Q 3713 2572 3713 1747 
Q 3713 922 3314 415 
Q 2916 -91 2278 -91 
Q 1894 -91 1617 61 
Q 1341 213 1159 525 
L 1159 0 
L 581 0 
L 581 4863 
L 1159 4863 
L 1159 2969 
z
" transform="scale(0.015625)"/>
      <path id="DejaVuSans-66" d="M 2375 4863 
L 2375 4384 
L 1825 4384 
Q 1516 4384 1395 4259 
Q 1275 4134 1275 3809 
L 1275 3500 
L 2222 3500 
L 2222 3053 
L 1275 3053 
L 1275 0 
L 697 0 
L 697 3053 
L 147 3053 
L 147 3500 
L 697 3500 
L 697 3744 
Q 697 4328 969 4595 
Q 1241 4863 1831 4863 
L 2375 4863 
z
" transform="scale(0.015625)"/>
     </defs>
     <use xlink:href="#DejaVuSans-50"/>
     <use xlink:href="#DejaVuSans-6f" x="56.677734"/>
     <use xlink:href="#DejaVuSans-70" x="117.859375"/>
     <use xlink:href="#DejaVuSans-75" x="181.335938"/>
     <use xlink:href="#DejaVuSans-6c" x="244.714844"/>
     <use xlink:href="#DejaVuSans-61" x="272.498047"/>
     <use xlink:href="#DejaVuSans-74" x="333.777344"/>
     <use xlink:href="#DejaVuSans-69" x="372.986328"/>
     <use xlink:href="#DejaVuSans-6f" x="400.769531"/>
     <use xlink:href="#DejaVuSans-6e" x="461.951172"/>
     <use xlink:href="#DejaVuSans-27" x="525.330078"/>
     <use xlink:href="#DejaVuSans-73" x="552.820312"/>
     <use xlink:href="#DejaVuSans-20" x="604.919922"/>
     <use xlink:href="#DejaVuSans-61" x="636.707031"/>
     <use xlink:href="#DejaVuSans-76" x="697.986328"/>
     <use xlink:href="#DejaVuSans-65" x="757.166016"/>
     <use xlink:href="#DejaVuSans-72" x="818.689453"/>
     <use xlink:href="#DejaVuSans-61" x="859.802734"/>
     <use xlink:href="#DejaVuSans-67" x="921.082031"/>
     <use xlink:href="#DejaVuSans-65" x="984.558594"/>
     <use xlink:href="#DejaVuSans-20" x="1046.082031"/>
     <use xlink:href="#DejaVuSans-61" x="1077.869141"/>
     <use xlink:href="#DejaVuSans-6e" x="1139.148438"/>
     <use xlink:href="#DejaVuSans-64" x="1202.527344"/>
     <use xlink:href="#DejaVuSans-20" x="1266.003906"/>
     <use xlink:href="#DejaVuSans-62" x="1297.791016"/>
     <use xlink:href="#DejaVuSans-65" x="1361.267578"/>
     <use xlink:href="#DejaVuSans-73" x="1422.791016"/>
     <use xlink:href="#DejaVuSans-74" x="1474.890625"/>
     <use xlink:href="#DejaVuSans-20" x="1514.099609"/>
     <use xlink:href="#DejaVuSans-66" x="1545.886719"/>
     <use xlink:href="#DejaVuSans-69" x="1581.091797"/>
     <use xlink:href="#DejaVuSans-74" x="1608.875"/>
     <use xlink:href="#DejaVuSans-6e" x="1648.083984"/>
     <use xlink:href="#DejaVuSans-65" x="1711.462891"/>
     <use xlink:href="#DejaVuSans-73" x="1772.986328"/>
     <use xlink:href="#DejaVuSans-73" x="1825.085938"/>
    </g>
   </g>
   <g id="legend_1">
    <g id="patch_7">
     <path d="M 199.689687 302.584 
L 272.630313 302.584 
Q 274.630313 302.584 274.630313 300.584 
L 274.630313 242.8715 
Q 274.630313 240.8715 272.630313 240.8715 
L 199.689687 240.8715 
Q 197.689687 240.8715 197.689687 242.8715 
L 197.689687 300.584 
Q 197.689687 302.584 199.689687 302.584 
z
" style="fill: #ffffff; opacity: 0.8; stroke: #cccccc; stroke-linejoin: miter"/>
    </g>
    <g id="line2d_37">
     <path d="M 201.689687 248.969937 
L 211.689687 248.969937 
L 221.689687 248.969937 
" style="fill: none; stroke: #0000ff; stroke-width: 1.5; stroke-linecap: square"/>
    </g>
    <g id="text_20">
     <!-- average -->
     <g transform="translate(229.689687 252.469937) scale(0.1 -0.1)">
      <use xlink:href="#DejaVuSans-61"/>
      <use xlink:href="#DejaVuSans-76" x="61.279297"/>
      <use xlink:href="#DejaVuSans-65" x="120.458984"/>
      <use xlink:href="#DejaVuSans-72" x="181.982422"/>
      <use xlink:href="#DejaVuSans-61" x="223.095703"/>
      <use xlink:href="#DejaVuSans-67" x="284.375"/>
      <use xlink:href="#DejaVuSans-65" x="347.851562"/>
     </g>
    </g>
    <g id="line2d_38">
     <path d="M 201.689687 263.648062 
L 211.689687 263.648062 
L 221.689687 263.648062 
" style="fill: none; stroke-dasharray: 9.6,2.4,1.5,2.4; stroke-dashoffset: 0; stroke: #008000; stroke-width: 1.5"/>
    </g>
    <g id="text_21">
     <!-- -1 sd -->
     <g transform="translate(229.689687 267.148062) scale(0.1 -0.1)">
      <defs>
       <path id="DejaVuSans-2d" d="M 313 2009 
L 1997 2009 
L 1997 1497 
L 313 1497 
L 313 2009 
z
" transform="scale(0.015625)"/>
      </defs>
      <use xlink:href="#DejaVuSans-2d"/>
      <use xlink:href="#DejaVuSans-31" x="36.083984"/>
      <use xlink:href="#DejaVuSans-20" x="99.707031"/>
      <use xlink:href="#DejaVuSans-73" x="131.494141"/>
      <use xlink:href="#DejaVuSans-64" x="183.59375"/>
     </g>
    </g>
    <g id="line2d_39">
     <path d="M 201.689687 278.326187 
L 211.689687 278.326187 
L 221.689687 278.326187 
" style="fill: none; stroke-dasharray: 9.6,2.4,1.5,2.4; stroke-dashoffset: 0; stroke: #008000; stroke-width: 1.5"/>
    </g>
    <g id="text_22">
     <!-- +1 sd -->
     <g transform="translate(229.689687 281.826187) scale(0.1 -0.1)">
      <defs>
       <path id="DejaVuSans-2b" d="M 2944 4013 
L 2944 2272 
L 4684 2272 
L 4684 1741 
L 2944 1741 
L 2944 0 
L 2419 0 
L 2419 1741 
L 678 1741 
L 678 2272 
L 2419 2272 
L 2419 4013 
L 2944 4013 
z
" transform="scale(0.015625)"/>
      </defs>
      <use xlink:href="#DejaVuSans-2b"/>
      <use xlink:href="#DejaVuSans-31" x="83.789062"/>
      <use xlink:href="#DejaVuSans-20" x="147.412109"/>
      <use xlink:href="#DejaVuSans-73" x="179.199219"/>
      <use xlink:href="#DejaVuSans-64" x="231.298828"/>
     </g>
    </g>
    <g id="line2d_40">
     <path d="M 201.689687 293.004312 
L 211.689687 293.004312 
L 221.689687 293.004312 
" style="fill: none; stroke: #ff0000; stroke-width: 1.5; stroke-linecap: square"/>
    </g>
    <g id="text_23">
     <!-- best -->
     <g transform="translate(229.689687 296.504312) scale(0.1 -0.1)">
      <use xlink:href="#DejaVuSans-62"/>
      <use xlink:href="#DejaVuSans-65" x="63.476562"/>
      <use xlink:href="#DejaVuSans-73" x="125"/>
      <use xlink:href="#DejaVuSans-74" x="177.099609"/>
     </g>
    </g>
   </g>
  </g>
 </g>
 <defs>
  <clipPath id="pb288a7a6b8">
   <rect x="57.6" y="41.472" width="357.12" height="266.112"/>
  </clipPath>
 </defs>
</svg>
